<?xml version="1.0" encoding="utf-8"?>
<!-- Generator: Adobe Illustrator 22.0.1, SVG Export Plug-In . SVG Version: 6.00 Build 0)  -->
<svg version="1.1" id="Layer_1" xmlns="http://www.w3.org/2000/svg" xmlns:xlink="http://www.w3.org/1999/xlink" x="0px" y="0px"
	 viewBox="0 0 44.7 44.7" style="enable-background:new 0 0 44.7 44.7;" xml:space="preserve">
<style type="text/css">
	.st0{fill:#FFFFFF;}
	.st1{fill:#FBAE42;}
</style>
<circle class="st0" cx="22.3" cy="22.3" r="18.7"/>
<g>
	<g>
		<path class="st1" d="M22.3,0C10,0,0,10,0,22.3c0,12.3,10,22.3,22.3,22.3s22.3-10,22.3-22.3C44.7,10,34.7,0,22.3,0z M22.3,7.8
			l13.2,8.2H9.1L22.3,7.8z M35.7,29.3L35.7,29.3c0,1.3-1.1,2.4-2.4,2.4h-22C10,31.7,9,30.6,9,29.3V16.6c0-0.1,0-0.3,0-0.4l12.6,7.9
			c0,0,0,0,0,0c0,0,0,0,0.1,0c0.1,0,0.2,0.1,0.3,0.1c0,0,0,0,0,0c0.1,0,0.2,0,0.3,0h0c0,0,0,0,0,0c0.1,0,0.2,0,0.3,0c0,0,0,0,0,0
			c0.1,0,0.2-0.1,0.3-0.1c0,0,0,0,0.1,0c0,0,0,0,0,0l12.6-7.9c0,0.1,0,0.3,0,0.4L35.7,29.3L35.7,29.3z"/>
	</g>
</g>
</svg>
