<?xml version="1.0" encoding="utf-8"?>
<!-- Generator: Adobe Illustrator 22.0.1, SVG Export Plug-In . SVG Version: 6.00 Build 0)  -->
<svg version="1.1" id="Layer_1" xmlns="http://www.w3.org/2000/svg" xmlns:xlink="http://www.w3.org/1999/xlink" x="0px" y="0px"
	 viewBox="0 0 44.7 44.7" style="enable-background:new 0 0 44.7 44.7;" xml:space="preserve">
<style type="text/css">
	.st0{fill:#3F3E3D;}
	.st1{fill:#FFFFFF;}
</style>
<g>
	<circle class="st0" cx="22.3" cy="22.3" r="22.3"/>
</g>
<g>
	<g>
		<path class="st1" d="M23.1,9.6h0.1c0.8,0.2,1.7,0.4,2.5,0.8c4.3,2,6,7,3.8,11.2c-1.8,3.5-3.6,7-5.4,10.5c-0.5,0.9-0.9,1.8-1.4,2.7
			c-0.2,0.4-0.7,0.4-0.9,0c-0.4-0.7-0.7-1.4-1.1-2.1c-1.9-3.7-3.8-7.4-5.7-11.2c-2.6-5.1,0.5-11,6.1-11.9c0.1,0,0.1,0,0.2-0.1
			c0.1,0,0.1,0,0.2,0h1.6V9.6z M27.3,17.7c0-2.7-2.2-4.9-4.9-4.9s-4.9,2.2-4.9,4.9s2.3,4.9,4.9,4.9C25.1,22.7,27.3,20.4,27.3,17.7z"
			/>
	</g>
</g>
</svg>
