<?xml version="1.0" encoding="utf-8"?>
<!-- Generator: Adobe Illustrator 22.0.1, SVG Export Plug-In . SVG Version: 6.00 Build 0)  -->
<svg version="1.1" id="Layer_1" xmlns="http://www.w3.org/2000/svg" xmlns:xlink="http://www.w3.org/1999/xlink" x="0px" y="0px"
	 viewBox="0 0 44.7 44.7" style="enable-background:new 0 0 44.7 44.7;" xml:space="preserve">
<style type="text/css">
	.st0{fill:#FFFFFF;}
	.st1{fill:#3F3E3D;}
</style>
<g>
	<g>
		<path class="st0" d="M23.1,9.6c0,0,0.1,0,0.1,0c0.8,0.2,1.7,0.4,2.5,0.8c4.3,2,6,7,3.8,11.2c-1.8,3.5-3.6,7-5.4,10.5
			c-0.5,0.9-0.9,1.8-1.4,2.7c-0.2,0.4-0.7,0.4-0.9,0c-0.4-0.7-0.7-1.4-1.1-2.1c-1.9-3.7-3.8-7.4-5.7-11.2c-2.6-5.1,0.5-11,6.1-11.9
			c0.1,0,0.1,0,0.2-0.1c0.1,0,0.1,0,0.2,0H23.1z M27.3,17.7c0-2.7-2.2-4.9-4.9-4.9c-2.7,0-4.9,2.2-4.9,4.9c0,2.7,2.3,4.9,4.9,4.9
			C25.1,22.7,27.3,20.4,27.3,17.7z"/>
	</g>
</g>
<g>
	<circle class="st1" cx="22.3" cy="22.3" r="22.3"/>
	<g>
		<path class="st0" d="M30.3,31.6c0,0.3-0.1,0.5-0.2,0.7c-0.5,0.9-2.3,2.8-7.7,2.8c-5.4,0-7.2-1.9-7.7-2.8c-0.1-0.2-0.2-0.5-0.2-0.7
			V10.9c0-0.7,0.6-1.3,1.2-1.3H29c0.7,0,1.2,0.6,1.2,1.3V31.6z"/>
	</g>
	<rect x="16" y="11.4" class="st1" width="12.4" height="18"/>
	<circle class="st1" cx="22.3" cy="31.8" r="1.5"/>
</g>
</svg>
